<svg fill="none" height="312" viewBox="0 0 400 312" width="400" data-mobile-lines="true" xmlns="http://www.w3.org/2000/svg">
  <defs>
    <style>
      :root {
        --geist-background: #fff;
        --geist-foreground: #000;
      }

      @media (prefers-color-scheme: dark) {
         :root {
          --geist-background: #000;
          --geist-foreground: #fff;
        }
      }
    </style>
  </defs>
  <path
    d="M140 36L140 23C140 20.7909 138.209 19 136 19L62.0001 19"
    stroke="var(--geist-foreground)"
    stroke-opacity="0.1"
  />
  <path
    d="M116 62L16.0001 62"
    stroke="var(--geist-foreground)"
    stroke-opacity="0.1"
  />
  <path
    d="M284 62.0076L559 62.0076C561.209 62.0076 563 63.7985 563 66.0076L563 195.5"
    stroke="var(--geist-foreground)"
    stroke-opacity="0.1"
  />
  <path
    d="M116 81.9318L-160 81.9318C-162.209 81.9318 -164 83.7226 -164 85.9317L-164 105.841"
    stroke="var(--geist-foreground)"
    stroke-opacity="0.1"
  />
  <path
    d="M284.5 82L370 82C372.209 82 374 83.7909 374 86L374 301.883C374 304.092 372.209 305.883 370 305.883L240 305.883C237.791 305.883 236 307.674 236 309.883L236 312"
    stroke="var(--geist-foreground)"
    stroke-opacity="0.1"
  />
  <path
    d="M140 108L140 117.825C140 120.034 138.209 121.825 136 121.825L67.0001 121.825"
    stroke="var(--geist-foreground)"
    stroke-opacity="0.1"
  />
  <path
    d="M164 36L164 4"
    stroke="url(#paint0_linear_114_9407)"
    stroke-opacity="0.1"
  />
  <path
    d="M164 172.5L164 108"
    stroke="var(--geist-foreground)"
    stroke-opacity="0.1"
  />
  <path
    d="M188 36L188 4"
    stroke="url(#paint1_linear_114_9407)"
    stroke-opacity="0.1"
  />
  <path
    d="M188 137.689L188 107.803"
    stroke="var(--geist-foreground)"
    stroke-opacity="0.1"
  />
  <path
    d="M212 36.1364L212 4.25757"
    stroke="var(--geist-foreground)"
    stroke-opacity="0.1"
  />
  <path
    d="M212 138L212 108"
    stroke="var(--geist-foreground)"
    stroke-opacity="0.1"
  />
  <path
    d="M236 36L236 8C236 5.79086 237.791 4 240 4L306 4"
    stroke="url(#paint2_linear_114_9407)"
    stroke-opacity="0.1"
  />
  <path
    d="M236 107.803L236 133.689C236 135.898 237.791 137.689 240 137.689L312 137.689"
    stroke="var(--geist-foreground)"
    stroke-opacity="0.1"
  />
  <path
    d="M260 36.1364L260 28.1819C260 25.9727 261.791 24.1819 264 24.1819L638 24.1819C640.209 24.1819 642 25.9727 642 28.1819L642 203.5"
    stroke="var(--geist-foreground)"
    stroke-opacity="0.1"
  />
  <path
    d="M260 107.803L260 116.754C260 118.963 261.791 120.754 264 120.754L312 120.754"
    stroke="var(--geist-foreground)"
    stroke-opacity="0.1"
  />
  <ellipse
    cx="212"
    cy="4.25755"
    fill="var(--geist-background)"
    rx="4"
    ry="3.98485"
  />
  <path
    d="M215.5 4.25755C215.5 6.18039 213.935 7.7424 212 7.7424C210.065 7.7424 208.5 6.18039 208.5 4.25755C208.5 2.33471 210.065 0.772705 212 0.772705C213.935 0.772705 215.5 2.33471 215.5 4.25755Z"
    stroke="var(--geist-foreground)"
    stroke-opacity="0.1"
  />
  <ellipse
    cx="60.0001"
    cy="18.9848"
    fill="var(--geist-background)"
    rx="4"
    ry="3.98485"
  />
  <path
    d="M63.5001 18.9848C63.5001 20.9077 61.9349 22.4697 60.0001 22.4697C58.0653 22.4697 56.5001 20.9077 56.5001 18.9848C56.5001 17.062 58.0653 15.5 60.0001 15.5C61.9349 15.5 63.5001 17.062 63.5001 18.9848Z"
    stroke="var(--geist-foreground)"
    stroke-opacity="0.1"
  />
  <ellipse
    cx="20.0001"
    cy="61.9848"
    fill="var(--geist-background)"
    rx="4"
    ry="3.98485"
  />
  <path
    d="M23.5001 61.9848C23.5001 63.9077 21.9349 65.4697 20.0001 65.4697C18.0653 65.4697 16.5001 63.9077 16.5001 61.9848C16.5001 60.062 18.0653 58.5 20.0001 58.5C21.9349 58.5 23.5001 60.062 23.5001 61.9848Z"
    stroke="var(--geist-foreground)"
    stroke-opacity="0.1"
  />
  <ellipse
    cx="188"
    cy="137.985"
    fill="var(--geist-background)"
    rx="4"
    ry="3.98485"
  />
  <path
    d="M191.5 137.985C191.5 139.908 189.935 141.47 188 141.47C186.065 141.47 184.5 139.908 184.5 137.985C184.5 136.062 186.065 134.5 188 134.5C189.935 134.5 191.5 136.062 191.5 137.985Z"
    stroke="var(--geist-foreground)"
    stroke-opacity="0.1"
  />
  <ellipse
    cx="66.0001"
    cy="121.985"
    fill="var(--geist-background)"
    rx="4"
    ry="3.98485"
  />
  <path
    d="M69.5001 121.985C69.5001 123.908 67.9349 125.47 66.0001 125.47C64.0653 125.47 62.5001 123.908 62.5001 121.985C62.5001 120.062 64.0653 118.5 66.0001 118.5C67.9349 118.5 69.5001 120.062 69.5001 121.985Z"
    stroke="var(--geist-foreground)"
    stroke-opacity="0.1"
  />
  <ellipse
    cx="212"
    cy="137.985"
    fill="var(--geist-background)"
    rx="4"
    ry="3.98485"
  />
  <path
    d="M215.5 137.985C215.5 139.908 213.935 141.47 212 141.47C210.065 141.47 208.5 139.908 208.5 137.985C208.5 136.062 210.065 134.5 212 134.5C213.935 134.5 215.5 136.062 215.5 137.985Z"
    stroke="var(--geist-foreground)"
    stroke-opacity="0.1"
  />
  <ellipse
    cx="312"
    cy="137.689"
    fill="var(--geist-background)"
    rx="4"
    ry="3.98485"
  />
  <path
    d="M315.5 137.689C315.5 139.612 313.935 141.174 312 141.174C310.065 141.174 308.5 139.612 308.5 137.689C308.5 135.767 310.065 134.205 312 134.205C313.935 134.205 315.5 135.767 315.5 137.689Z"
    stroke="var(--geist-foreground)"
    stroke-opacity="0.1"
  />
  <ellipse
    cx="312"
    cy="120.754"
    fill="var(--geist-background)"
    rx="4"
    ry="3.98485"
  />
  <path
    d="M315.5 120.754C315.5 122.677 313.935 124.239 312 124.239C310.065 124.239 308.5 122.677 308.5 120.754C308.5 118.831 310.065 117.269 312 117.269C313.935 117.269 315.5 118.831 315.5 120.754Z"
    stroke="var(--geist-foreground)"
    stroke-opacity="0.1"
  />
  <rect
    fill="url(#paint3_linear_114_9407)"
    height="60"
    rx="0.996212"
    transform="rotate(90 368 61)"
    width="1.99242"
    x="368"
    y="61"
  />
  <rect
    fill="url(#paint4_linear_114_9407)"
    height="60"
    rx="0.996212"
    transform="matrix(0 1 1 0 38 81)"
    width="1.99242"
  />
  <rect
    fill="url(#paint5_linear_114_9407)"
    height="28"
    rx="1"
    transform="matrix(1 0 0 -1 163 148)"
    width="2"
  />
  <defs>
    <linearGradient
      gradientUnits="userSpaceOnUse"
      id="paint0_linear_114_9407"
      x1="164.5"
      x2="164.5"
      y1="4"
      y2="36"
    >
      <stop stop-opacity="0" />
      <stop offset="1" />
    </linearGradient>
    <linearGradient
      gradientUnits="userSpaceOnUse"
      id="paint1_linear_114_9407"
      x1="188.5"
      x2="188.5"
      y1="4"
      y2="36"
    >
      <stop stop-opacity="0" />
      <stop offset="1" />
    </linearGradient>
    <linearGradient
      gradientUnits="userSpaceOnUse"
      id="paint2_linear_114_9407"
      x1="306"
      x2="286.061"
      y1="4"
      y2="55.4142"
    >
      <stop stop-opacity="0" />
      <stop offset="1" />
    </linearGradient>
    <linearGradient
      gradientUnits="userSpaceOnUse"
      id="paint3_linear_114_9407"
      x1="369.799"
      x2="369.797"
      y1="121.239"
      y2="58.4805"
    >
      <stop stop-color="#FF4A81" />
      <stop offset="0.21875" stop-color="#DF6CF7" />
      <stop offset="1" stop-color="#0196FF" stop-opacity="0" />
    </linearGradient>
    <linearGradient
      gradientUnits="userSpaceOnUse"
      id="paint4_linear_114_9407"
      x1="1.79948"
      x2="1.79741"
      y1="60.2391"
      y2="-2.51953"
    >
      <stop stop-color="#FF7432" />
      <stop offset="0.21875" stop-color="#F7CC4B" />
      <stop offset="1" stop-color="#F7CC4B" stop-opacity="0" />
    </linearGradient>
    <linearGradient
      gradientUnits="userSpaceOnUse"
      id="paint5_linear_114_9407"
      x1="1.80632"
      x2="1.80587"
      y1="28.1116"
      y2="-1.17578"
    >
      <stop stop-color="#2EB9DF" />
      <stop offset="0.21875" stop-color="#61DAFB" />
      <stop offset="1" stop-color="#61DAFB" stop-opacity="0" />
    </linearGradient>
  </defs>
</svg>
